<svg width="24" height="24" viewBox="0 0 24 24" fill="none" xmlns="http://www.w3.org/2000/svg">
  <path d="M8.79249 15.9805C7.73481 14.9259 7.14035 13.4936 7.14035 12C7.14035 10.5063 7.73481 9.07406 8.79249 8.01939C9.65041 7.16148 9.65041 5.77052 8.79249 4.9126C7.93458 4.05469 6.54362 4.05469 5.6857 4.9126C3.82661 6.80409 2.78124 9.34782 2.77309 12C2.79946 14.6485 3.84214 17.1856 5.6857 19.0873C6.24068 19.6423 7.04957 19.8591 7.80768 19.6559C8.56579 19.4528 9.15794 18.8606 9.36108 18.1025C9.56421 17.3444 9.34747 16.5355 8.79249 15.9805Z" fill="#FFD85F"/>
  <path d="M8.7925 8.01941C9.84716 6.96172 11.2794 6.36726 12.7731 6.36726C14.2667 6.36726 15.699 6.96172 16.7536 8.01941C17.6116 8.87732 19.0025 8.87732 19.8604 8.01941C20.7184 7.16149 20.7184 5.77053 19.8604 4.91262C17.9689 3.05352 15.4252 2.00816 12.7731 2C10.1246 2.02637 7.5874 3.06905 5.6857 4.91262C4.82779 5.77053 4.82779 7.16149 5.6857 8.01941C6.54362 8.87732 7.93458 8.87732 8.7925 8.01941Z" fill="#3BB4E7"/>
  <path d="M16.7536 15.9806C15.699 17.0383 14.2667 17.6327 12.7731 17.6327C11.2794 17.6327 9.84716 17.0383 8.7925 15.9806C7.93458 15.1227 6.54362 15.1227 5.6857 15.9806C4.82779 16.8385 4.82779 18.2295 5.6857 19.0874C7.57719 20.9465 10.1209 21.9918 12.7731 22C15.4216 21.9736 17.9587 20.9309 19.8604 19.0874C20.4154 18.5324 20.6322 17.7235 20.429 16.9654C20.2259 16.2073 19.6337 15.6151 18.8756 15.412C18.1175 15.2089 17.3086 15.4256 16.7536 15.9806Z" fill="#ED5C68"/>
  <path d="M8.86146 8.04815C9.7332 7.1758 9.73271 5.76194 8.86036 4.8902C7.98802 4.01846 6.57415 4.01895 5.70242 4.8913C4.83068 5.76365 4.83117 7.17751 5.70352 8.04925C6.57587 8.92099 7.98973 8.92049 8.86146 8.04815Z" fill="#308BC5"/>
  <path d="M8.85139 19.1047C9.72313 18.2323 9.72264 16.8185 8.85029 15.9467C7.97794 15.075 6.56408 15.0755 5.69234 15.9478C4.82061 16.8202 4.8211 18.234 5.69345 19.1058C6.56579 19.9775 7.97966 19.977 8.85139 19.1047Z" fill="#D5465F"/>
</svg>
