<svg width="24" height="24" viewBox="0 0 24 24" fill="none" xmlns="http://www.w3.org/2000/svg">
  <path d="M3.42152 11.9997C3.42152 15.3954 5.39487 18.3298 8.25637 19.7204L4.16424 8.50848C3.68825 9.57539 3.42152 10.7561 3.42152 11.9997Z" fill="#464342"/>
  <path d="M17.7914 11.5668C17.7914 10.5066 17.4106 9.77236 17.0839 9.20087C16.6491 8.49423 16.2415 7.89581 16.2415 7.18917C16.2415 6.40058 16.8396 5.66652 17.682 5.66652C17.7201 5.66652 17.7561 5.67125 17.7932 5.67337C16.2669 4.2751 14.2335 3.42139 12.0002 3.42139C9.00316 3.42139 6.36644 4.95906 4.83252 7.28809C5.03379 7.29413 5.22347 7.29837 5.38458 7.29837C6.28188 7.29837 7.67084 7.1895 7.67084 7.1895C8.13329 7.16224 8.18781 7.84145 7.72585 7.89614C7.72585 7.89614 7.26112 7.95082 6.744 7.97792L9.86798 17.2701L11.7453 11.6396L10.4088 7.97759C9.94682 7.9505 9.50919 7.89581 9.50919 7.89581C9.04691 7.86871 9.10111 7.16191 9.56339 7.18917C9.56339 7.18917 10.9801 7.29805 11.823 7.29805C12.7202 7.29805 14.1093 7.18917 14.1093 7.18917C14.5721 7.16191 14.6264 7.84113 14.1643 7.89581C14.1643 7.89581 13.6986 7.9505 13.1825 7.97759L16.2826 17.1994L17.1383 14.34C17.5092 13.1534 17.7914 12.3012 17.7914 11.5668Z" fill="#464342"/>
  <path d="M12.1506 12.7501L9.57675 20.2294C10.3453 20.4553 11.158 20.5789 12.0001 20.5789C12.9991 20.5789 13.9572 20.4062 14.8489 20.0926C14.8259 20.0559 14.805 20.0168 14.7879 19.9744L12.1506 12.7501Z" fill="#464342"/>
  <path d="M19.5276 7.88397C19.5645 8.15723 19.5853 8.45056 19.5853 8.76609C19.5853 9.63662 19.4228 10.6152 18.9331 11.8388L16.3127 19.415C18.863 17.9278 20.5785 15.1647 20.5785 11.9999C20.5786 10.5085 20.1976 9.10595 19.5276 7.88397Z" fill="#464342"/>
  <path fill-rule="evenodd" clip-rule="evenodd" d="M2.00006 11.9998C2.00006 6.48585 6.48624 2 12.0001 2C17.5139 2 22.0005 6.48585 22.0007 11.9998C22.0007 17.5143 17.5139 22 12.0001 22C6.48624 22 2.00006 17.5143 2.00006 11.9998ZM2.45857 11.9998C2.45857 17.2612 6.73907 21.5417 12.0001 21.5417C17.261 21.5417 21.5412 17.2612 21.5412 11.9998C21.5412 6.73875 17.261 2.45858 12.0001 2.45858C6.73891 2.45858 2.45857 6.73875 2.45857 11.9998Z" fill="#464342"/>
</svg>
