<svg width="24" height="24" viewBox="0 0 24 24" fill="none" xmlns="http://www.w3.org/2000/svg">
  <rect x="0.000793457" width="24" height="24" rx="4" fill="#663333" fill-opacity="0.5"/>
  <path d="M7.00079 7H5.50079C4.67237 7 4.00079 7.67157 4.00079 8.5V10C4.00079 10.8284 4.67237 11.5 5.50079 11.5H6.00079C6.82922 11.5 7.50079 12.1716 7.50079 13V14.5C7.50079 15.3284 6.82922 16 6.00079 16H4.50079" stroke="white" stroke-width="1.5" stroke-linecap="square"/>
  <path d="M13.5008 7H12.0008C11.1724 7 10.5008 7.67157 10.5008 8.5V10C10.5008 10.8284 11.1724 11.5 12.0008 11.5H12.5008C13.3292 11.5 14.0008 12.1716 14.0008 13V14.5C14.0008 15.3284 13.3292 16 12.5008 16H11.0008" stroke="white" stroke-width="1.5" stroke-linecap="square"/>
  <path d="M20.0008 7H18.5008C17.6724 7 17.0008 7.67157 17.0008 8.5V14.5C17.0008 15.3284 17.6724 16 18.5008 16H19.0008C19.8292 16 20.5008 15.3284 20.5008 14.5V10.7895H19.5008" stroke="white" stroke-width="1.5" stroke-linecap="square"/>
</svg>
