<svg width="24" height="24" viewBox="0 0 24 24" fill="none" xmlns="http://www.w3.org/2000/svg">
  <rect x="0.000793457" width="24" height="24" rx="4" fill="#3b2b2b" fill-opacity="0.5"/>
  <path d="M7.00079 7H5.50079C4.67237 7 4.00079 7.67157 4.00079 8.5V10C4.00079 10.8284 4.67237 11.5 5.50079 11.5H6.00079C6.82922 11.5 7.50079 12.1716 7.50079 13V14.5C7.50079 15.3284 6.82922 16 6.00079 16H4.50079" stroke="white" stroke-width="1.5" stroke-linecap="square"/>
  <path d="M13.5008 7H12.0008C11.1724 7 10.5008 7.67157 10.5008 8.5V10C10.5008 10.8284 11.1724 11.5 12.0008 11.5H12.5008C13.3292 11.5 14.0008 12.1716 14.0008 13V14.5C14.0008 15.3284 13.3292 16 12.5008 16H11.0008" stroke="white" stroke-width="1.5" stroke-linecap="square"/>
  <path d="M17.0008 16V10.6M17.0008 10.6V7H18.5008C19.3292 7 20.0008 7.67157 20.0008 8.5V9.1C20.0008 9.92843 19.3292 10.6 18.5008 10.6H17.0008ZM20.5008 16V12.1C20.5008 11.2716 19.8292 10.6 19.0008 10.6H18.7508" stroke="white" stroke-width="1.5" stroke-linecap="square"/>
</svg>
