<svg width="24" height="24" viewBox="0 0 24 24" fill="none" xmlns="http://www.w3.org/2000/svg">
  <path fill-rule="evenodd" clip-rule="evenodd" d="M18.5795 5.72497C18.6528 5.72497 18.7409 5.78247 18.7555 5.8831C18.7603 5.91567 18.9954 7.47606 19.3114 9.5726C19.9718 13.9551 20.9854 20.6804 20.9854 20.6901L14.6626 22.0271L3 19.8851C3 19.8851 4.49634 8.52824 4.55501 8.12572C4.62836 7.59382 4.64303 7.57944 5.21516 7.40693C5.24581 7.39692 5.35474 7.36425 5.52707 7.31255L5.52708 7.31255L5.52713 7.31253L5.52722 7.31251C5.84978 7.21575 6.39438 7.05238 7.06358 6.84628C7.45967 5.20744 8.72128 1.9729 11.3619 1.9729C11.6993 1.9729 12.11 2.15979 12.4181 2.56231H12.5208C13.6504 2.56231 14.2959 3.51111 14.6626 4.56053C14.835 4.50856 14.9744 4.4654 15.0768 4.43369L15.0768 4.43368L15.0769 4.43367C15.201 4.39524 15.2707 4.37365 15.2787 4.37365C15.3668 4.3449 15.6015 4.31615 15.7188 4.43115C15.8509 4.54616 16.9365 5.60996 16.9365 5.60996C16.9365 5.60996 18.5061 5.72497 18.5795 5.72497ZM13.0342 5.03501C13.3863 4.92 13.7237 4.81937 14.0171 4.73312C13.7677 3.98558 13.3863 3.33867 12.7995 3.25241C12.9462 3.66931 13.0342 4.18684 13.0342 4.81937V5.03501ZM12.066 3.39603C12.2274 3.79855 12.3301 4.35921 12.3301 5.1355V5.2505C11.9623 5.36518 11.5802 5.47985 11.1893 5.59719L11.1892 5.5972L11.1892 5.59723C10.894 5.68581 10.5939 5.7759 10.291 5.86866C10.687 4.38796 11.4352 3.66917 12.066 3.39603ZM11.6259 2.77796C11.5232 2.70608 11.4058 2.66295 11.2885 2.66295C9.39606 2.66295 8.32515 5.10683 7.88505 6.60191C8.12571 6.52779 8.37282 6.45367 8.62486 6.37807C8.91055 6.29238 9.20258 6.20478 9.49875 6.11313C9.88017 4.14365 10.775 3.1661 11.6259 2.77796Z" fill="#95BF47"/>
  <path d="M18.5795 5.71054C18.5061 5.71054 16.9364 5.59554 16.9364 5.59554C16.9364 5.59554 15.8508 4.53173 15.7188 4.41673C15.6748 4.3736 15.6161 4.34485 15.5574 4.34485L14.6772 22.027L21 20.6901C21 20.6901 18.7848 5.98368 18.7702 5.88305C18.7408 5.78242 18.6528 5.72492 18.5795 5.71054Z" fill="#5E8E3E"/>
  <path d="M12.5208 9.13213L11.7433 11.4035C11.7433 11.4035 11.0538 11.0441 10.2177 11.0441C8.98539 11.0441 8.92671 11.806 8.92671 11.9929C8.92671 13.028 11.6847 13.4305 11.6847 15.86C11.6847 17.772 10.4524 19.0083 8.78001 19.0083C6.77022 19.0083 5.758 17.7863 5.758 17.7863L6.30078 16.0469C6.30078 16.0469 7.35702 16.9382 8.23722 16.9382C8.82402 16.9382 9.05873 16.4925 9.05873 16.1619C9.05873 14.8105 6.79956 14.753 6.79956 12.5248C6.79956 10.656 8.16387 8.84461 10.9365 8.84461C11.9927 8.83024 12.5208 9.13213 12.5208 9.13213Z" fill="white"/>
</svg>
