<svg width="48" height="48" viewBox="0 0 48 48" fill="none" xmlns="http://www.w3.org/2000/svg">
<g clip-path="url(#clip0_1363_33615)">
<path fill-rule="evenodd" clip-rule="evenodd" d="M45.2012 26.4376C45.9177 26.544 46.5558 26.6559 47.0652 27.0757C47.9496 27.809 48.0728 29.1805 47.972 30.2216C47.9104 30.8766 47.7481 31.5875 47.4682 32.2984C47.1548 33.1044 46.679 33.9161 46.0296 34.6494C45.7777 34.9293 45.5034 35.2036 45.2012 35.4554V36.2783C45.2012 36.3175 45.2012 36.3567 45.2012 36.4015V44.6636C45.2012 45.5312 44.9213 46.2422 44.4063 46.7739C43.8745 47.3225 43.1524 47.6136 42.296 47.6136H3.02274C2.19429 47.6136 1.4442 47.2833 0.895627 46.7403C0.341458 46.1918 0 45.4417 0 44.6076V15.9924C0 15.2535 0.162332 14.4418 0.610146 13.6581C0.918018 13.1152 1.36023 12.6002 1.97038 12.1468C2.04875 12.0908 2.13271 12.0292 2.21668 11.9732C2.24466 11.9564 2.27265 11.934 2.30064 11.9173L9.91907 7.09766L19.5862 0.979412C20.5658 0.358071 21.2599 -0.0113752 22.6034 -0.000179879C23.5102 0.00541779 24.4282 0.24052 25.2063 0.721919L42.184 11.4638C42.3799 11.587 42.615 11.7269 42.8054 11.8613C43.4995 12.3539 44.0536 13.0312 44.4567 13.7589C44.9381 14.6209 45.2012 15.5949 45.2012 16.5409V23.9634V26.4376V26.4376Z" fill="#663333"/>
<path fill-rule="evenodd" clip-rule="evenodd" d="M6.07906 27.3614L21.1144 31.4477V32.959L21.1424 35.45L21.1648 36.9894C21.1872 38.3944 21.204 39.7714 21.204 40.9021C21.204 41.3164 20.8681 41.6578 20.4483 41.6578C20.0284 41.6578 19.6926 41.322 19.6926 40.9021C19.6926 39.3068 19.6758 37.9858 19.6534 36.6759L17.0449 36.1273C16.6363 36.0434 16.3788 35.6459 16.4627 35.2373C16.5467 34.8287 16.9441 34.5712 17.3528 34.6551L19.6366 35.1365L19.6142 33.0766L17.5711 33.2333C17.1568 33.2669 16.793 32.9535 16.765 32.5392C16.7314 32.125 17.0449 31.7611 17.4591 31.7332L19.6086 31.5708C19.6086 28.772 19.6982 25.9508 19.9893 23.1072C19.547 23.4598 19.0489 23.8684 18.6906 24.1819L15.3656 27.227C15.1361 27.4509 14.7834 27.5125 14.4868 27.3558C14.4812 27.3558 12.382 26.2307 10.2885 26.2922C8.16139 26.3594 6.09025 27.367 6.08466 27.367C5.87195 27.4733 5.60886 27.4677 5.38495 27.339L1.57853 25.1503V31.666L3.41457 31.7611C3.8288 31.7835 4.14786 32.1362 4.12547 32.5504C4.10308 32.9646 3.75043 33.2837 3.3362 33.2613L1.57294 33.1718V35.0302L3.14588 34.6607C3.54891 34.5656 3.95754 34.8175 4.04711 35.2205C4.14227 35.6235 3.89037 36.0322 3.48734 36.1217L1.57294 36.5695V44.5966C1.57294 45.4027 2.21667 46.0296 3.02273 46.0296H42.3016C43.1356 46.0296 43.6338 45.5482 43.6338 44.6526V36.3904C43.3035 36.5528 42.9509 36.7039 42.5815 36.827C41.5011 37.1909 40.2136 37.4484 38.8702 37.5827C37.913 37.6779 36.9166 37.7059 35.937 37.6611C35.047 37.7674 34.5376 38.1873 33.9107 38.6967C33.6364 38.9206 33.3453 39.1557 32.9759 39.4132C32.209 39.9505 30.9719 40.1856 29.9475 40.0401C29.5893 39.9897 29.2478 39.8946 28.9511 39.749C28.6153 39.5867 28.3298 39.3628 28.1227 39.0661C27.8708 38.7023 27.7532 38.2656 27.826 37.7507C27.9827 36.6367 28.6768 35.8922 29.3038 35.4276C28.8784 34.9966 28.5537 34.4928 28.3578 33.9162C28.2682 33.6476 28.2066 33.3621 28.1787 33.0654C28.1395 32.6512 28.4417 32.2873 28.856 32.2481C29.2702 32.209 29.634 32.5112 29.6732 32.9255C29.69 33.1046 29.7292 33.2781 29.7852 33.4404C29.9811 34.017 30.4065 34.4928 30.9999 34.879L31.0782 34.9294C31.5988 35.2541 32.237 35.5116 32.9479 35.7075C33.8491 35.9538 34.8623 36.0993 35.8978 36.1553C35.9258 36.1553 35.9538 36.1553 35.9818 36.1553C36.8942 36.2001 37.8234 36.1721 38.7303 36.0825C39.9617 35.965 41.1317 35.7299 42.1057 35.3996C42.4807 35.2709 42.8278 35.1197 43.1412 34.9518C44.6134 34.1625 45.5258 32.9367 46.0072 31.7164C46.4774 30.5185 46.539 29.3597 46.2983 28.66C46.2703 28.5817 46.2423 28.5145 46.2143 28.4585C45.8897 27.8484 43.8633 27.9044 42.128 27.9547C40.8406 27.9883 39.6819 28.0219 39.0381 27.7308C37.885 27.2046 37.7171 25.934 37.51 24.361C37.3924 23.4934 37.2637 22.5194 36.9334 21.5846C36.2449 19.6646 35.2821 19.0321 35.0582 18.9089C34.8959 18.8417 34.7503 18.713 34.6663 18.5451L32.7799 14.6771L30.7928 17.739C30.6528 17.9517 30.4121 18.086 30.1378 18.0804L26.6057 17.9629C26.3482 17.9573 26.0963 17.8118 25.9676 17.5655L23.6389 13.2105C21.5174 19.3567 21.1312 25.4302 21.1144 31.4309L13.5967 29.3877L6.07906 27.3446V27.3614ZM7.12582 28.8951C7.59043 28.8951 7.97107 29.4045 7.97107 30.0371C7.97107 30.6696 7.59043 31.179 7.12582 31.179C6.66122 31.179 6.28058 30.6696 6.28058 30.0371C6.28058 29.4045 6.66122 28.8951 7.12582 28.8951ZM13.3168 28.8951C13.7815 28.8951 14.1621 29.4045 14.1621 30.0371C14.1621 30.6696 13.7815 31.179 13.3168 31.179C12.8522 31.179 12.4716 30.6696 12.4716 30.0371C12.4716 29.4045 12.8522 28.8951 13.3168 28.8951ZM12.7235 33.0542C12.7067 32.8639 12.7683 32.6848 12.8802 32.5448C12.9978 32.3993 13.1769 32.2985 13.3784 32.2761C13.7703 32.2425 14.1229 32.5336 14.1565 32.9311C14.1677 33.0542 14.1677 33.1718 14.1565 33.2893C14.0949 33.8603 13.7703 34.3865 13.3168 34.7559C13.0426 34.9798 12.7179 35.1477 12.3652 35.2317C12.0014 35.3213 11.6152 35.3213 11.2345 35.2037C10.8987 35.0974 10.5796 34.907 10.2997 34.6104C10.0142 34.907 9.69515 35.0974 9.36489 35.2037C8.98425 35.3213 8.59801 35.3213 8.23416 35.2317C7.88711 35.1477 7.55684 34.9798 7.28256 34.7559C6.73399 34.3137 6.38133 33.6308 6.44291 32.9311C6.47649 32.5392 6.82355 32.2425 7.22098 32.2761C7.61282 32.3097 7.9095 32.6568 7.87591 33.0542C7.85912 33.2613 7.98786 33.4852 8.18938 33.6476C8.30133 33.7427 8.43568 33.8099 8.57562 33.8435C8.69877 33.8715 8.82751 33.8771 8.95066 33.8379C9.19136 33.7651 9.42647 33.53 9.61679 33.0598C9.67276 32.8471 9.83509 32.6624 10.059 32.5784C10.1374 32.5504 10.2213 32.5336 10.2997 32.5336H10.3109C10.3893 32.5336 10.4732 32.5504 10.5516 32.5784C10.7755 32.6624 10.9322 32.8471 10.9938 33.0598C11.1841 33.53 11.4192 33.7651 11.6599 33.8379C11.7831 33.8771 11.9118 33.8771 12.035 33.8435C12.1749 33.8099 12.3037 33.7427 12.4212 33.6476C12.6227 33.4852 12.7515 33.2613 12.7347 33.0542H12.7235ZM29.3318 26.3146C28.8672 26.3146 28.4865 25.8052 28.4865 25.1727C28.4865 24.5402 28.8672 24.0308 29.3318 24.0308C29.7964 24.0308 30.177 24.5402 30.177 25.1727C30.177 25.8052 29.7964 26.3146 29.3318 26.3146ZM34.1346 25.1727C34.1346 24.5402 34.5152 24.0308 34.9798 24.0308C35.4444 24.0308 35.8251 24.5402 35.8251 25.1727C35.8251 25.8052 35.4444 26.3146 34.9798 26.3146C34.5152 26.3146 34.1346 25.8052 34.1346 25.1727ZM40.4823 30.6024C40.4823 29.7012 41.5123 28.9679 42.7774 28.9679C44.0424 28.9679 45.0724 29.7012 45.0724 30.6024C45.0724 31.5037 44.0424 32.2369 42.7774 32.2369C41.5123 32.2369 40.4823 31.5037 40.4823 30.6024Z" fill="white"/>
<path fill-rule="evenodd" clip-rule="evenodd" d="M36.2337 37.6723C36.396 38.6967 36.7823 41.2044 37.0006 43.3092C37.1237 44.5295 37.1181 45.3915 37.1741 46.0296H42.3016C43.1356 46.0296 43.6338 45.5482 43.6338 44.6526V36.3904C43.3036 36.5528 42.9509 36.7039 42.5815 36.8271C41.5011 37.1909 40.2136 37.4484 38.8702 37.5827C38.0082 37.6667 37.1181 37.7003 36.2337 37.6723V37.6723Z" fill="#FAD49D"/>
<path fill-rule="evenodd" clip-rule="evenodd" d="M20.2691 20.8737C20.7393 17.655 21.5174 14.4084 22.8105 11.1226C22.9616 10.7363 23.3982 10.546 23.7845 10.6971C23.9748 10.7699 24.1147 10.9154 24.1931 11.0834L27.0871 16.4907L29.7628 16.5803L32.2426 12.7571C32.4665 12.41 32.9311 12.3093 33.2837 12.5388C33.4013 12.6171 33.4908 12.7235 33.5524 12.841L35.9258 17.7054C36.4296 18.0301 37.5939 18.9817 38.3496 21.1032C38.7303 22.1668 38.8702 23.2415 38.9989 24.1875C39.1445 25.3014 39.2676 26.2027 39.6595 26.3818C39.9953 26.5329 40.9917 26.5049 42.0944 26.477C42.6038 26.4602 43.13 26.449 43.645 26.449V16.5411C43.645 15.1865 42.8837 13.7535 41.6746 12.9866C41.6746 12.9866 41.6746 12.9866 41.669 12.9866L24.3722 2.04874C24.3722 2.04874 24.3722 2.04874 24.3666 2.04874C23.471 1.48337 21.9372 1.35463 20.8793 2.02075H20.8737L3.13468 13.2441H3.12349C1.93119 14.011 1.56734 15.0801 1.56734 15.9925V23.415L5.78798 25.8444C6.54366 25.5254 8.36291 24.8424 10.2381 24.7865C12.0574 24.7305 13.8598 25.419 14.6995 25.794L17.6718 23.0736L17.711 23.04L20.2579 20.8793L20.2691 20.8737Z" fill="#FF6566"/>
<path fill-rule="evenodd" clip-rule="evenodd" d="M6.07906 27.3614L10.4005 26.281C10.3725 27.4845 10.0758 30.4793 8.04384 33.5076C7.92629 33.3677 7.85912 33.2053 7.87031 33.0542C7.9039 32.6624 7.61282 32.3097 7.21538 32.2761C6.81795 32.2425 6.47089 32.5336 6.43731 32.931C6.38133 33.586 6.68361 34.2185 7.165 34.6607C5.70401 36.2952 3.54891 37.0733 1.56734 37.4316V36.5751L3.48174 36.1273C3.88477 36.0322 4.13667 35.6291 4.04151 35.2261C3.94635 34.8231 3.54331 34.5712 3.14028 34.6663L1.56734 35.0358V33.1773L3.3306 33.2669C3.74483 33.2893 4.09748 32.9702 4.11987 32.556C4.14226 32.1418 3.8232 31.7891 3.40897 31.7667L1.57293 31.6716V25.1559L5.37935 27.3446C5.60326 27.4733 5.86635 27.4733 6.07906 27.3726C6.08465 27.3726 8.16139 26.365 10.2829 26.2978H10.4005L6.07906 27.3726V27.3614ZM7.12582 28.8951C6.66121 28.8951 6.28057 29.4045 6.28057 30.0371C6.28057 30.6696 6.66121 31.179 7.12582 31.179C7.59043 31.179 7.97107 30.6696 7.97107 30.0371C7.97107 29.4045 7.59043 28.8951 7.12582 28.8951Z" fill="#BEB0B0"/>
<path fill-rule="evenodd" clip-rule="evenodd" d="M20.521 46.0296L20.4315 41.6522H20.4483C20.8625 41.6522 21.204 41.3164 21.204 40.8965C21.204 39.7658 21.1872 38.3944 21.1648 36.9838L21.1424 35.4444L21.1144 32.9535V31.4421C21.1256 25.4414 21.5174 19.3679 23.6333 13.2217L25.962 17.5767C26.0907 17.823 26.3426 17.9629 26.6001 17.9741L30.1322 18.0916C30.4065 18.1028 30.6472 17.9629 30.7872 17.7502L32.7743 14.6883L34.6607 18.5563C34.7447 18.7298 34.8847 18.8529 35.0526 18.9201C35.2765 19.0433 36.2393 19.6758 36.9278 21.5958C37.2581 22.525 37.3924 23.5046 37.5044 24.3722C37.7115 25.9452 37.8794 27.2158 39.0325 27.742C39.1837 27.8092 39.3684 27.8652 39.5755 27.8988C39.3684 28.1451 39.0269 28.4249 38.5119 28.5369C37.5268 28.7496 35.1421 28.9567 34.0562 26.5385C32.9702 24.1147 32.7911 21.064 32.2985 20.9241C31.8059 20.7841 31.1398 21.2375 31.9851 24.7865C32.8247 28.3298 33.7035 29.6284 32.584 30.261C31.4589 30.8935 28.0555 28.2626 27.1095 30.8207C26.1635 33.3845 26.5833 41.2716 27.1095 46.0352H20.5266L20.521 46.0296ZM26.6001 17.9741L29.3318 26.3146C29.802 26.3146 30.177 25.8052 30.177 25.1727C30.177 24.5402 29.7964 24.0308 29.3318 24.0308C28.8672 24.0308 28.4865 24.5402 28.4865 25.1727C28.4865 25.8052 28.8672 26.3146 29.3318 26.3146L26.6001 17.9741ZM34.1346 25.1727C34.1346 25.8052 34.5152 26.3146 34.9798 26.3146C35.4444 26.3146 35.8251 25.8052 35.8251 25.1727C35.8251 24.5402 35.4444 24.0308 34.9798 24.0308C34.5152 24.0308 34.1346 24.5402 34.1346 25.1727Z" fill="#FAD49D"/>
<path fill-rule="evenodd" clip-rule="evenodd" d="M8.29575 16.1941C8.97866 18.254 11.6711 19.6254 14.414 21.0025C15.7854 18.2596 17.2128 15.5223 16.5299 13.4624C15.8358 11.3633 12.2085 11.3073 12.3597 14.4252C10.602 12.035 7.60164 14.0949 8.29575 16.1885V16.1941Z" fill="white"/>
<path fill-rule="evenodd" clip-rule="evenodd" d="M30.5801 36.3793C30.1658 36.592 29.4325 37.0902 29.315 37.9578C29.2982 38.0697 29.315 38.1537 29.3542 38.2097C29.4045 38.2769 29.4885 38.344 29.6061 38.3944C29.7572 38.4672 29.9475 38.5176 30.1546 38.5456C30.8431 38.6407 31.6436 38.5064 32.1138 38.1761C32.4217 37.9634 32.7016 37.7339 32.9591 37.5212L33.2166 37.3141L32.5504 37.1517L31.9627 36.9726C31.3581 37.1573 30.4737 37.4876 30.4737 37.4876L31.3525 36.7431C31.0838 36.6311 30.8208 36.508 30.5801 36.3737V36.3793Z" fill="#FF6566"/>
</g>
<defs>
<clipPath id="clip0_1363_33615">
<rect width="48" height="48" fill="white"/>
</clipPath>
</defs>
</svg>
